<svg xmlns="http://www.w3.org/2000/svg" xmlns:xlink="http://www.w3.org/1999/xlink" width="500" zoomAndPan="magnify" viewBox="0 0 375 374.999991" height="500" preserveAspectRatio="xMidYMid meet" version="1.0"><defs><clipPath id="d6a90eddc4"><path d="M 105.027344 92.292969 L 266 92.292969 L 266 282.792969 L 105.027344 282.792969 Z M 105.027344 92.292969 " clip-rule="nonzero"/></clipPath><clipPath id="aaa6f33e19"><path d="M 179.046875 114.871094 L 225.546875 114.871094 L 225.546875 161.371094 L 179.046875 161.371094 Z M 179.046875 114.871094 " clip-rule="nonzero"/></clipPath><clipPath id="3ed87281f2"><path d="M 185.464844 121.289062 L 218.464844 121.289062 L 218.464844 154.289062 L 185.464844 154.289062 Z M 185.464844 121.289062 " clip-rule="nonzero"/></clipPath></defs><g clip-path="url(#d6a90eddc4)"><path fill="#ffffff" d="M 225.839844 199.386719 C 223.40625 207.390625 221.089844 215.019531 218.753906 222.699219 C 226.839844 223.164062 235.371094 215.269531 236.691406 206.324219 C 238.558594 193.65625 230.148438 182.96875 217.28125 182.675781 C 200.355469 182.292969 183.414062 182.585938 166.484375 182.585938 C 156.402344 182.585938 146.320312 182.585938 135.726562 182.585938 C 136.039062 181.265625 136.210938 180.257812 136.507812 179.292969 C 145 151.488281 153.53125 123.699219 161.941406 95.871094 C 162.746094 93.191406 164.050781 92.316406 166.765625 92.335938 C 182.945312 92.457031 199.121094 92.335938 215.292969 92.460938 C 241.882812 92.667969 261.878906 112.761719 261.355469 138.691406 C 261.164062 148.136719 257.6875 156.496094 252.265625 164.054688 C 250.671875 166.28125 250.632812 167.589844 252.472656 169.777344 C 269.386719 189.882812 269.960938 215.71875 253.84375 234.722656 C 243.414062 247.019531 229.839844 252.652344 213.816406 252.097656 C 210.390625 251.976562 209.203125 253.097656 208.335938 256.226562 C 206.144531 264.171875 203.578125 272.019531 201.027344 279.859375 C 200.695312 280.878906 199.582031 282.398438 198.804688 282.40625 C 188.835938 282.578125 178.867188 282.523438 168.367188 282.523438 C 171.34375 272.320312 174.207031 262.507812 177.238281 252.140625 C 175.464844 252.140625 174.308594 252.140625 173.15625 252.140625 C 164.578125 252.125 156 252.230469 147.425781 252.035156 C 144.789062 251.972656 143.585938 252.714844 142.855469 255.296875 C 140.550781 263.441406 137.890625 271.488281 135.578125 279.632812 C 134.914062 281.980469 133.808594 282.628906 131.476562 282.589844 C 122.808594 282.460938 114.136719 282.535156 105.027344 282.535156 C 105.472656 280.941406 105.785156 279.710938 106.15625 278.503906 C 113.855469 253.292969 121.609375 228.101562 129.210938 202.863281 C 130.046875 200.09375 131.253906 199.167969 134.167969 199.238281 C 142.503906 199.457031 150.847656 199.316406 159.824219 199.316406 C 157.378906 207.566406 155.066406 215.359375 152.59375 223.699219 C 155.757812 223.699219 158.542969 223.695312 161.320312 223.699219 C 168.484375 223.714844 175.652344 223.632812 182.808594 223.820312 C 185.007812 223.875 185.851562 223.097656 186.394531 221.132812 C 188.15625 214.757812 189.988281 208.402344 191.957031 202.089844 C 192.28125 201.0625 193.398438 199.527344 194.171875 199.519531 C 204.5625 199.332031 214.957031 199.386719 225.839844 199.386719 Z M 225.839844 199.386719 " fill-opacity="1" fill-rule="nonzero"/></g><g clip-path="url(#aaa6f33e19)"><path fill="#000000" d="M 202.144531 114.871094 C 214.902344 114.871094 225.242188 125.210938 225.242188 137.96875 C 225.242188 150.726562 214.902344 161.066406 202.144531 161.066406 C 189.382812 161.066406 179.046875 150.726562 179.046875 137.96875 C 179.046875 125.210938 189.382812 114.871094 202.144531 114.871094 Z M 202.144531 114.871094 " fill-opacity="1" fill-rule="nonzero"/></g><g clip-path="url(#3ed87281f2)"><path fill="#bc89d5" d="M 202.144531 121.289062 C 211.359375 121.289062 218.828125 128.753906 218.828125 137.96875 C 218.828125 147.1875 211.359375 154.652344 202.144531 154.652344 C 192.929688 154.652344 185.464844 147.1875 185.464844 137.96875 C 185.464844 128.753906 192.929688 121.289062 202.144531 121.289062 Z M 202.144531 121.289062 " fill-opacity="1" fill-rule="nonzero"/></g></svg>